<?xml version="1.0" encoding="utf-8"?>
<!-- Generator: Adobe Illustrator 18.0.0, SVG Export Plug-In . SVG Version: 6.00 Build 0)  -->
<!DOCTYPE svg PUBLIC "-//W3C//DTD SVG 1.1//EN" "http://www.w3.org/Graphics/SVG/1.1/DTD/svg11.dtd">
<svg version="1.1" id="_x2D_---------------_1_" xmlns="http://www.w3.org/2000/svg" xmlns:xlink="http://www.w3.org/1999/xlink"
	 x="0px" y="0px" viewBox="0 0 132 132" enable-background="new 0 0 132 132" xml:space="preserve">
<g id="_x2D_---------------">
	<g>
		<path fill-rule="evenodd" clip-rule="evenodd" fill="#EEEEEE" d="M130.3,112.7l-4.6,0.8l1.7,9.5l4.6-0.8L130.3,112.7z M125.8,97.2
			l-4.5,1.4l2.9,9.2l4.5-1.4L125.8,97.2z M119.5,82.4l-4.3,1.9l4,8.8l4.3-1.9L119.5,82.4z M111.4,68.5l-4,2.4l5.1,8.2l4-2.4
			L111.4,68.5z M101.6,55.7l-3.7,2.9l6.1,7.6l3.7-2.9L101.6,55.7z M87,47.4l6.9,6.8l3.3-3.3l-6.9-6.8L87,47.4z M74.8,37.6l7.7,5.9
			l2.9-3.7L77.7,34L74.8,37.6z M61.5,29.3l8.4,5l2.5-4l-8.4-5L61.5,29.3z M47.3,22.7l9,3.9l1.9-4.2l-9-3.9L47.3,22.7z M32.3,17.8
			l9.4,2.8l1.4-4.4l-9.4-2.8L32.3,17.8z M16.8,14.8l9.7,1.7l0.8-4.6l-9.7-1.7L16.8,14.8z M1,13.6l9.8,0.5l0.3-4.6L1.3,9L1,13.6z"/>
	</g>
</g>
</svg>
